<svg width="24" height="24" xmlns="http://www.w3.org/2000/svg">
 <title>Facebook</title>

 <g>
  <title>background</title>
  <rect fill="none" id="canvas_background" height="402" width="582" y="-1" x="-1"/>
 </g>
 <g>
  <title>Layer 1</title>
  <path fill="#4eaa93" id="svg_1" d="m24,12.073c0,-6.627 -5.373,-12 -12,-12s-12,5.373 -12,12c0,5.99 4.388,10.954 10.125,11.854l0,-8.385l-3.047,0l0,-3.47l3.047,0l0,-2.642c0,-3.007 1.792,-4.669 4.533,-4.669c1.312,0 2.686,0.235 2.686,0.235l0,2.953l-1.514,0c-1.491,0 -1.956,0.925 -1.956,1.874l0,2.25l3.328,0l-0.532,3.47l-2.796,0l0,8.385c5.738,-0.901 10.126,-5.866 10.126,-11.855z"/>
 </g>
</svg>