<svg width="24" height="24" xmlns="http://www.w3.org/2000/svg">
 <title>Instagram</title>

 <g>
  <title>background</title>
  <rect fill="none" id="canvas_background" height="402" width="582" y="-1" x="-1"/>
 </g>
 <g>
  <title>Layer 1</title>
  <path fill="#4eaa93" id="svg_1" d="m12,0c-3.26,0 -3.667,0.015 -4.947,0.072c-1.278,0.06 -2.148,0.261 -2.913,0.558c-0.789,0.306 -1.459,0.717 -2.126,1.384s-1.079,1.336 -1.384,2.126c-0.297,0.765 -0.499,1.635 -0.558,2.913c-0.06,1.28 -0.072,1.687 -0.072,4.947s0.015,3.667 0.072,4.947c0.06,1.277 0.261,2.148 0.558,2.913c0.306,0.788 0.717,1.459 1.384,2.126c0.667,0.666 1.336,1.079 2.126,1.384c0.766,0.296 1.636,0.499 2.913,0.558c1.28,0.06 1.687,0.072 4.947,0.072s3.667,-0.015 4.947,-0.072c1.277,-0.06 2.148,-0.262 2.913,-0.558c0.788,-0.306 1.459,-0.718 2.126,-1.384c0.666,-0.667 1.079,-1.335 1.384,-2.126c0.296,-0.765 0.499,-1.636 0.558,-2.913c0.06,-1.28 0.072,-1.687 0.072,-4.947s-0.015,-3.667 -0.072,-4.947c-0.06,-1.277 -0.262,-2.149 -0.558,-2.913c-0.306,-0.789 -0.718,-1.459 -1.384,-2.126c-0.667,-0.667 -1.335,-1.079 -2.126,-1.384c-0.765,-0.297 -1.636,-0.499 -2.913,-0.558c-1.28,-0.06 -1.687,-0.072 -4.947,-0.072zm0,2.16c3.203,0 3.585,0.016 4.85,0.071c1.17,0.055 1.805,0.249 2.227,0.415c0.562,0.217 0.96,0.477 1.382,0.896c0.419,0.42 0.679,0.819 0.896,1.381c0.164,0.422 0.36,1.057 0.413,2.227c0.057,1.266 0.07,1.646 0.07,4.85s-0.015,3.585 -0.074,4.85c-0.061,1.17 -0.256,1.805 -0.421,2.227c-0.224,0.562 -0.479,0.96 -0.899,1.382c-0.419,0.419 -0.824,0.679 -1.38,0.896c-0.42,0.164 -1.065,0.36 -2.235,0.413c-1.274,0.057 -1.649,0.07 -4.859,0.07c-3.211,0 -3.586,-0.015 -4.859,-0.074c-1.171,-0.061 -1.816,-0.256 -2.236,-0.421c-0.569,-0.224 -0.96,-0.479 -1.379,-0.899c-0.421,-0.419 -0.69,-0.824 -0.9,-1.38c-0.165,-0.42 -0.359,-1.065 -0.42,-2.235c-0.045,-1.26 -0.061,-1.649 -0.061,-4.844c0,-3.196 0.016,-3.586 0.061,-4.861c0.061,-1.17 0.255,-1.814 0.42,-2.234c0.21,-0.57 0.479,-0.96 0.9,-1.381c0.419,-0.419 0.81,-0.689 1.379,-0.898c0.42,-0.166 1.051,-0.361 2.221,-0.421c1.275,-0.045 1.65,-0.06 4.859,-0.06l0.045,0.03zm0,3.678c-3.405,0 -6.162,2.76 -6.162,6.162c0,3.405 2.76,6.162 6.162,6.162c3.405,0 6.162,-2.76 6.162,-6.162c0,-3.405 -2.76,-6.162 -6.162,-6.162zm0,10.162c-2.21,0 -4,-1.79 -4,-4s1.79,-4 4,-4s4,1.79 4,4s-1.79,4 -4,4zm7.846,-20.567c0,0.795 -0.646,1.44 -1.44,1.44c-0.795,0 -1.44,-0.646 -1.44,-1.44c0,-0.794 0.646,-1.439 1.44,-1.439c0.793,-0.001 1.44,0.645 1.44,1.439z"/>
 </g>
</svg>