<svg width="24" height="24" xmlns="http://www.w3.org/2000/svg">
 <title>Twitter</title>

 <g>
  <title>background</title>
  <rect fill="none" id="canvas_background" height="402" width="582" y="-1" x="-1"/>
 </g>
 <g>
  <title>Layer 1</title>
  <path fill="#4eaa93" id="svg_1" d="m23.953,4.57a10,10 0 0 1 -2.825,0.775a4.958,4.958 0 0 0 2.163,-2.723c-0.951,0.555 -2.005,0.959 -3.127,1.184a4.92,4.92 0 0 0 -8.384,4.482c-4.09,-0.193 -7.713,-2.158 -10.14,-5.126a4.822,4.822 0 0 0 -0.666,2.475c0,1.71 0.87,3.213 2.188,4.096a4.904,4.904 0 0 1 -2.228,-0.616l0,0.06a4.923,4.923 0 0 0 3.946,4.827a4.996,4.996 0 0 1 -2.212,0.085a4.936,4.936 0 0 0 4.604,3.417a9.867,9.867 0 0 1 -6.102,2.105c-0.39,0 -0.779,-0.023 -1.17,-0.067a13.995,13.995 0 0 0 7.557,2.209c9.053,0 13.998,-7.496 13.998,-13.985c0,-0.21 0,-0.42 -0.015,-0.63a9.935,9.935 0 0 0 2.46,-2.548l-0.047,-0.02z"/>
 </g>
</svg>